# xmcd
#
# Track frame offsets:
#	150
#	13812
#	27109
#	40693
#	55407
#	69438
#	83167
#	97320
#	109412
#	122802
#	136427
#	150477
#	164647
#	177619
#	191564
#	205163
#	218190
#	231332
#	246666
#	259573
#	272791
#	287341
#	299282
#	313675
#
# Disc length: 4358 seconds
#
# Revision: 1
# Processed by: cddbd v1.4PL0 Copyright (c) Steve Scherf et al.
# Submitted via: CDmax 2.0
#
DISCID=72110418
DTITLE=Charley Patton - Screamin' and hollerin' the blues - CD 2
DYEAR=2001
DGENRE=Blues
TTITLE0=Pea vine blues
TTITLE1=Jim Lee blues part 1
TTITLE2=Jim Lee blues part 2
TTITLE3=Some these days I'll be gone
TTITLE4=Jersey bull blues
TTITLE5=I'm goin' home
TTITLE6=Joe Kirby
TTITLE7=Hang it on the wall
TTITLE8=Pony blues
TTITLE9=I shall not be moved
TTITLE10=Bird nest bound
TTITLE11=Mean black moan
TTITLE12=Down the dirt road blues
TTITLE13=When your way gets dark
TTITLE14=Banty rooster blues
TTITLE15=Some summer day
TTITLE16=Love my stuff
TTITLE17=It won't be long
TTITLE18=Oh death
TTITLE19=Troubled about my mother
TTITLE20=Hammer blues
TTITLE21=Revenue man blues
TTITLE22=Moon going down
TTITLE23=Poor me
EXTD=
EXTT0=
EXTT1=
EXTT2=
EXTT3=
EXTT4=
EXTT5=
EXTT6=
EXTT7=
EXTT8=
EXTT9=
EXTT10=
EXTT11=
EXTT12=
EXTT13=
EXTT14=
EXTT15=
EXTT16=
EXTT17=
EXTT18=
EXTT19=
EXTT20=
EXTT21=
EXTT22=
EXTT23=
PLAYORDER=
